<svg fill="none" height="33" viewBox="0 0 164 33" width="164" xmlns="http://www.w3.org/2000/svg" xmlns:xlink="http://www.w3.org/1999/xlink"><clipPath id="a"><path d="m0 4h163.301v27h-163.301z"/></clipPath><g clip-path="url(#a)" fill="#000"><path d="m63.1084 27.2048v-22.77108h8.241v22.77108z"/><path d="m108.434 15.2771v-10.84338h8.241v10.84338c0 2.6024.867 5.6385 6.072 5.6385h.108c5.097 0 5.964-3.0361 5.964-5.6385v-10.84338h8.241v10.84338c0 4.5542-1.193 12.253-13.662 12.253h-.976c-13.121 0-13.988-7.8072-13.988-12.253z"/><path d="m163.084 9.85544h-14.53v2.92766h14.097v5.6386h-14.097v3.1446h14.747v5.5301h-22.988v-22.77108h22.771z"/><path d="m107.133 24.9277-4.013-1.9518c1.627-2.1687 2.169-4.6626 2.169-6.7229v-.8675c0-4.8795-2.494-11.3855-14.6384-11.3855h-1.4096c-12.0362 0-14.6386 6.506-14.6386 11.2771v.8675c0 4.6626 2.494 11.3855 14.6386 11.3855h1.4096c2.2771 0 4.2289-.2168 5.9639-.6506l7.5905 3.9036zm-17.133-3.5783c-5.747 0-6.7229-3.253-6.7229-5.4217v-.3253c0-2.1687.9759-5.3132 6.7229-5.3132s6.7229 3.1445 6.7229 5.3132v.3253c-.1084 2.1687-1.0843 5.4217-6.7229 5.4217z"/><path d="m0 15.0602v-10.40963h8.13253v10.40963c0 2.6024.86747 5.5301 6.07227 5.5301h.1085c5.0963 0 5.8554-3.0361 5.8554-5.5301v-10.40963h8.1325v10.40963c0 4.4458-1.1928 12.1446-13.6626 12.1446h-.9759c-12.79523 0-13.6627-7.6988-13.6627-12.1446z"/><path d="m59.5301 16.4699v10.8433h-8.1325v-10.7349c0-2.6024-.8675-5.5301-6.0723-5.5301h-.1084c-5.0964 0-5.8554 3.0361-5.8554 5.5301v10.7349h-8.1326v-10.8433c0-4.4458 1.1928-12.14461 13.6627-12.14461h.9759c12.7952-.10843 13.6626 7.59041 13.6626 12.14461z"/></g></svg>