<svg clip-rule="evenodd" fill-rule="evenodd" stroke-linejoin="round" stroke-miterlimit="1.41421" viewBox="0 0 512 512" xmlns="http://www.w3.org/2000/svg"><g fill-rule="nonzero" transform="matrix(4.11367 0 .0173446 4.19843 -568.712 -1325.51)"><path d="m191.818 400.56c0 5.375-1.867 9.469-5.601 12.281-3.735 2.813-9.321 4.219-16.758 4.219-3.813 0-7.063-.258-9.75-.774-2.688-.515-5.203-1.273-7.547-2.273v-11.813c2.656 1.25 5.648 2.297 8.977 3.141 3.328.844 6.257 1.266 8.789 1.266 5.187 0 7.781-1.5 7.781-4.5 0-1.125-.344-2.039-1.031-2.743-.688-.703-1.875-1.5-3.563-2.39-1.687-.891-3.937-1.93-6.75-3.117-4.031-1.688-6.992-3.25-8.883-4.688-1.89-1.437-3.265-3.086-4.125-4.945-.859-1.86-1.289-4.149-1.289-6.867 0-4.657 1.805-8.258 5.414-10.805 3.61-2.547 8.727-3.82 15.352-3.82 6.312 0 12.453 1.375 18.422 4.125l-4.313 10.312c-2.625-1.125-5.078-2.047-7.359-2.765-2.281-.719-4.61-1.079-6.985-1.079-4.218 0-6.328 1.141-6.328 3.422 0 1.282.68 2.391 2.039 3.328 1.36.938 4.336 2.329 8.93 4.172 4.094 1.657 7.094 3.203 9 4.641 1.906 1.437 3.313 3.094 4.219 4.969s1.359 4.109 1.359 6.703z"/><path d="m225.891 362.732c6.187 0 11.031 2.414 14.531 7.242s5.25 11.445 5.25 19.851c0 8.657-1.805 15.36-5.414 20.11s-8.524 7.125-14.742 7.125c-6.157 0-10.985-2.235-14.485-6.703h-.984l-2.391 5.765h-10.922v-72.937h14.297v16.969c0 2.156-.187 5.609-.562 10.359h.562c3.344-5.188 8.297-7.781 14.86-7.781zm-4.594 11.437c-3.531 0-6.109 1.086-7.734 3.258s-2.469 5.758-2.532 10.758v1.547c0 5.625.836 9.656 2.508 12.093 1.672 2.438 4.32 3.657 7.945 3.657 2.938 0 5.274-1.352 7.008-4.055 1.735-2.703 2.602-6.633 2.602-11.789s-.875-9.024-2.625-11.602-4.141-3.867-7.172-3.867z"/></g></svg>