<?xml version="1.0" encoding="utf-8"?>
<!-- Generator: Adobe Illustrator 21.0.1, SVG Export Plug-In . SVG Version: 6.00 Build 0)  -->
<svg version="1.1" id="Calque_1" xmlns="http://www.w3.org/2000/svg" xmlns:xlink="http://www.w3.org/1999/xlink" x="0px" y="0px"
	 viewBox="0 0 67.6 68.6" style="enable-background:new 0 0 67.6 68.6;" xml:space="preserve">
<style type="text/css">
	.st0{fill-rule:evenodd;clip-rule:evenodd;fill:#020611;}
	.st1{fill-rule:evenodd;clip-rule:evenodd;fill:#FFFFFF;}
</style>
<g>
	<circle class="st0" cx="33.8" cy="34.3" r="32"/>
	<g>
		<path class="st1" d="M22.4,30.3c0.2,0,0.4-0.2,0.4-0.4v-4.7l0,0l0-1.4c0,0,0-0.1,0-0.1c0-0.3,0.1-0.5,0.3-0.6
			c3.4-1.6,7.1-2.4,10.8-2.4c3.7,0,7.4,0.8,10.8,2.4c0.2,0.1,0.3,0.4,0.3,0.6c0,0,0,0.1,0,0.1l0,1.4l0,0l0,1c0,0.1,0.1,0.1,0.1,0.1
			l4.9-0.9c0.1,0,0.1-0.1,0.1-0.1v-1.1v0v0v0h0v-3.3l0,0c0-0.3-0.2-0.5-0.4-0.7c-1.6-0.9-3-1.5-4.7-2.1c-3.3-1.3-6.9-2-10.5-2
			c-0.2,0-0.4,0-0.6,0c-0.2,0-0.4,0-0.6,0c-3.6,0.1-7.1,0.7-10.5,2c-1.7,0.6-3.2,1.3-4.7,2.1c-0.2,0.1-0.4,0.4-0.4,0.7l0,0v3.3h0v0
			v0v0V31c0,0.1,0.1,0.1,0.1,0.1L22.4,30.3L22.4,30.3z"/>
		<path class="st1" d="M45.3,31.2c-0.2,0-0.4,0.2-0.4,0.4l0,3.2l0,0c0,1.5-0.3,2.9-0.8,4.2c-2.7,6.5-8.5,9.5-10,10.2
			c-0.1,0-0.2,0-0.3,0h0h0c-0.1,0-0.2,0-0.3,0c-1.5-0.7-7.3-3.8-10-10.2c-0.4-1.1-0.7-2.3-0.8-3.5c0-0.1-0.1-0.2-0.3-0.2l-4.7,0.8
			c-0.1,0-0.1,0.1-0.1,0.1c0.1,0.9,0.3,1.8,0.5,2.7l0,0c0,0,0,0,0,0.1c0.3,1.1,0.7,2.1,1.2,3.1c0.8,1.6,1.7,3.2,2.9,4.6
			c3,3.7,6.8,6.4,11.3,7.8c0,0,0,0,0,0c0,0,0,0,0,0h0c0.1,0,0.1,0,0.2,0s0.1,0,0.2,0h0c0,0,0,0,0,0c0,0,0,0,0,0
			c4.5-1.5,8.3-4.2,11.3-7.8c1.1-1.4,2.1-3,2.9-4.6c0.5-1,0.9-2,1.2-3.1c0,0,0,0,0-0.1c0,0,0,0,0,0c0.4-1.3,0.6-2.7,0.6-4.2
			c0,0,0,0,0,0l0-2.6h0v-1.6c0-0.1-0.1-0.1-0.1-0.1L45.3,31.2L45.3,31.2z"/>
	</g>
</g>
</svg>
