<svg height="254" preserveAspectRatio="xMidYMid" viewBox="0 0 512 254" width="512" xmlns="http://www.w3.org/2000/svg" xmlns:xlink="http://www.w3.org/1999/xlink"><linearGradient id="a" x1="50%" x2="50%" y1="0%" y2="100.002222%"><stop offset="0" stop-color="#00aeef"/><stop offset=".212" stop-color="#0097dc"/><stop offset=".519" stop-color="#007cc5"/><stop offset=".792" stop-color="#006cb8"/><stop offset="1" stop-color="#0066b3"/></linearGradient><path d="m0 253.281446h258.763582l253.236418-253.281446h-512z" fill="url(#a)"/><path d="m303.847679 50.6562892h-50.566233l.168967 118.9297098-44.031573-118.9747376h-43.660092l-37.586967 99.3594966c-3.996218-25.283116-30.1348635-34.007255-50.7013169-40.541916-13.5815139-4.36207-27.9960424-10.7785331-27.8497021-17.8704136.1125696-5.8198448 7.7110129-11.2175538 22.8122156-10.4126816 10.1312578.5459622 19.0805356 1.3620913 36.8834074 9.9624035l17.504562-30.506343c-16.232527-8.2626036-38.6788913-13.4802014-57.0840097-13.4970869h-.1125695c-21.4613812 0-39.3317943 6.9511686-50.4086362 18.4051184-7.7222699 7.9924368-11.88734253 18.1574655-12.05619683 29.3975332-.28142383 15.467054 5.38645213 26.431326 17.29630853 35.194864 10.0637161 7.373304 22.936042 12.157509 34.2774223 15.669679 13.9867643 4.333927 25.4125717 8.105006 25.2718598 16.131214-.1125695 2.926807-1.2157509 5.662247-3.3208011 7.86861-3.4896555 3.602225-8.8367083 4.953059-16.238155 5.0994-14.279445.30396-24.860981-1.941825-41.7238968-11.909857l-15.57399468 30.900337c16.84603038 9.579667 34.72770048 14.386386 55.04650088 14.386386l4.570323-.033794c17.6846734-.320812 32.0372886-4.559066 43.4405823-13.733482.652892-.52346 1.238265-1.052514 1.84614-1.587231l-1.913682 9.861091 42.663853-.13505 7.654728-19.598355c8.048721 2.746697 17.200624 4.266385 26.915375 4.266385 9.467097 0 18.371347-1.44089 26.2681-4.029989l5.335796 19.361959 76.547281.073171.185762-44.678847h16.288812c39.371193 0 62.644944-20.037377 62.644944-53.639382-.012799-37.4237409-22.637733-53.7238091-70.794979-53.7238091zm-116.475694 101.6615438c-5.881758 0-11.397665-1.024394-16.142471-2.825495l15.96236-50.4030079h.309544l15.703449 50.5437199c-4.72792 1.688543-10.114372 2.684783-15.838533 2.684783zm119.436273-28.958512h-11.110613v-40.6207154h11.116242c14.802893 0 26.622694 4.9305455 26.622694 20.0486334-.012833 15.647165-11.819801 20.572082-26.622694 20.572082" fill="#fff"/></svg>