<svg clip-rule="evenodd" fill-rule="evenodd" stroke-linejoin="round" stroke-miterlimit="2" viewBox="0 0 463 122" xmlns="http://www.w3.org/2000/svg"><g fill-rule="nonzero"><path d="m.511-.198c0 .064-.023.115-.069.152-.047.037-.111.056-.194.056-.076 0-.144-.015-.202-.043v-.141c.048.022.089.037.122.046.034.008.064.013.092.013.033 0 .058-.007.076-.019.018-.013.027-.032.027-.057 0-.014-.004-.026-.012-.037s-.019-.022-.034-.032-.046-.026-.093-.048c-.043-.021-.076-.04-.098-.059s-.039-.041-.052-.066-.02-.054-.02-.088c0-.063.022-.113.064-.149.043-.036.102-.054.178-.054.037 0 .072.004.106.013s.069.021.106.037l-.049.118c-.038-.016-.07-.027-.094-.033-.025-.006-.05-.009-.074-.009-.029 0-.051.007-.066.02s-.023.031-.023.052c0 .013.003.025.009.035.007.01.016.02.03.029.013.009.045.026.096.05.067.032.112.064.137.096s.037.071.037.118z" transform="matrix(113.26668 0 0 113.26668 14.114029 100.85846456)"/><path d="m.304-.45c-.031 0-.056.01-.074.03s-.028.048-.031.085h.209c0-.037-.01-.065-.029-.085-.018-.02-.043-.03-.075-.03zm.021.46c-.088 0-.156-.024-.206-.073-.049-.048-.074-.117-.074-.206 0-.092.023-.162.069-.212.045-.05.108-.075.189-.075.077 0 .137.022.18.066s.065.104.065.182v.072h-.352c.001.042.014.076.037.099.024.024.057.036.099.036.033 0 .064-.003.093-.01.03-.007.06-.018.092-.033v.115c-.026.013-.054.023-.083.029-.03.007-.066.01-.109.01z" transform="matrix(113.26668 0 0 113.26668 71.96498581 100.85846456)"/><path d="m.208 0-.208-.546h.156l.105.311c.012.04.019.077.022.112h.003c.002-.031.009-.069.022-.112l.105-.311h.156l-.208.546z" transform="matrix(113.26668 0 0 113.26668 132.09071511 100.85846456)"/><path d="m.304-.45c-.031 0-.056.01-.074.03s-.028.048-.031.085h.209c0-.037-.01-.065-.029-.085-.018-.02-.043-.03-.075-.03zm.021.46c-.088 0-.156-.024-.206-.073-.049-.048-.074-.117-.074-.206 0-.092.023-.162.069-.212.045-.05.108-.075.189-.075.077 0 .137.022.18.066s.065.104.065.182v.072h-.352c.001.042.014.076.037.099.024.024.057.036.099.036.033 0 .064-.003.093-.01.03-.007.06-.018.092-.033v.115c-.026.013-.054.023-.083.029-.03.007-.066.01-.109.01z" transform="matrix(113.26668 0 0 113.26668 191.98991105 100.85846456)"/><path d="m.582 0h-.149v-.319c0-.039-.007-.069-.021-.088-.014-.02-.036-.03-.067-.03-.041 0-.072.014-.09.042-.019.028-.028.074-.028.138v.257h-.149v-.546h.114l.02.07h.008c.017-.026.04-.046.069-.06.029-.013.062-.02.099-.02.064 0 .112.017.145.051.033.035.049.084.049.149z" transform="matrix(113.26668 0 0 113.26668 254.38097395 100.85846456)"/><path d="m.539 0h-.499v-.105l.179-.181c.053-.054.088-.092.104-.113.017-.021.028-.041.035-.059.008-.017.011-.036.011-.055 0-.029-.008-.05-.024-.064-.015-.014-.036-.021-.063-.021s-.054.006-.08.019-.054.031-.082.054l-.082-.097c.035-.03.064-.051.087-.064.024-.012.049-.021.076-.028.028-.007.058-.01.092-.01.045 0 .084.008.118.024.034.017.061.039.08.069.019.029.028.062.028.1 0 .033-.006.064-.017.093-.012.029-.03.058-.054.088-.024.031-.067.074-.128.13l-.092.086v.007h.311z" transform="matrix(113.26668 0 0 113.26668 324.28539329 100.85846456)"/><path d="m.511-.554c0 .044-.013.082-.04.114-.027.031-.065.052-.114.064v.003c.058.007.101.025.131.052.029.028.044.066.044.113 0 .069-.025.122-.074.16-.05.039-.121.058-.214.058-.077 0-.146-.013-.206-.039v-.128c.028.014.058.025.091.034.034.009.066.013.099.013.05 0 .087-.008.11-.025.024-.017.036-.044.036-.082 0-.033-.014-.057-.041-.071s-.071-.021-.131-.021h-.054v-.116h.055c.055 0 .096-.007.121-.022.026-.014.039-.039.039-.074 0-.054-.034-.081-.102-.081-.023 0-.047.004-.071.012-.025.007-.051.021-.081.04l-.07-.104c.065-.047.143-.07.233-.07.074 0 .132.015.175.045s.064.071.064.125z" transform="matrix(113.26668 0 0 113.26668 384.41112259 100.85846456)"/></g></svg>