<?xml version="1.0" encoding="UTF-8" standalone="no"?>
<!DOCTYPE svg PUBLIC "-//W3C//DTD SVG 1.1//EN" "http://www.w3.org/Graphics/SVG/1.1/DTD/svg11.dtd">
<svg width="100%" height="100%" viewBox="0 0 463 122" version="1.1" xmlns="http://www.w3.org/2000/svg" xmlns:xlink="http://www.w3.org/1999/xlink" xml:space="preserve" xmlns:serif="http://www.serif.com/" style="fill-rule:evenodd;clip-rule:evenodd;stroke-linejoin:round;stroke-miterlimit:2;">
    <g transform="matrix(9.43889,0,0,9.43889,-1176.13,-1202.69)">
        <g transform="matrix(12,0,0,12,126.1,138.104)">
            <path d="M0.511,-0.198C0.511,-0.134 0.488,-0.083 0.442,-0.046C0.395,-0.009 0.331,0.01 0.248,0.01C0.172,0.01 0.104,-0.005 0.046,-0.033L0.046,-0.174C0.094,-0.152 0.135,-0.137 0.168,-0.128C0.202,-0.12 0.232,-0.115 0.26,-0.115C0.293,-0.115 0.318,-0.122 0.336,-0.134C0.354,-0.147 0.363,-0.166 0.363,-0.191C0.363,-0.205 0.359,-0.217 0.351,-0.228C0.343,-0.239 0.332,-0.25 0.317,-0.26C0.302,-0.27 0.271,-0.286 0.224,-0.308C0.181,-0.329 0.148,-0.348 0.126,-0.367C0.104,-0.386 0.087,-0.408 0.074,-0.433C0.061,-0.458 0.054,-0.487 0.054,-0.521C0.054,-0.584 0.076,-0.634 0.118,-0.67C0.161,-0.706 0.22,-0.724 0.296,-0.724C0.333,-0.724 0.368,-0.72 0.402,-0.711C0.436,-0.702 0.471,-0.69 0.508,-0.674L0.459,-0.556C0.421,-0.572 0.389,-0.583 0.365,-0.589C0.34,-0.595 0.315,-0.598 0.291,-0.598C0.262,-0.598 0.24,-0.591 0.225,-0.578C0.21,-0.565 0.202,-0.547 0.202,-0.526C0.202,-0.513 0.205,-0.501 0.211,-0.491C0.218,-0.481 0.227,-0.471 0.241,-0.462C0.254,-0.453 0.286,-0.436 0.337,-0.412C0.404,-0.38 0.449,-0.348 0.474,-0.316C0.499,-0.284 0.511,-0.245 0.511,-0.198Z" style="fill-rule:nonzero;"/>
        </g>
        <g transform="matrix(12,0,0,12,132.229,138.104)">
            <path d="M0.304,-0.45C0.273,-0.45 0.248,-0.44 0.23,-0.42C0.212,-0.4 0.202,-0.372 0.199,-0.335L0.408,-0.335C0.408,-0.372 0.398,-0.4 0.379,-0.42C0.361,-0.44 0.336,-0.45 0.304,-0.45ZM0.325,0.01C0.237,0.01 0.169,-0.014 0.119,-0.063C0.07,-0.111 0.045,-0.18 0.045,-0.269C0.045,-0.361 0.068,-0.431 0.114,-0.481C0.159,-0.531 0.222,-0.556 0.303,-0.556C0.38,-0.556 0.44,-0.534 0.483,-0.49C0.526,-0.446 0.548,-0.386 0.548,-0.308L0.548,-0.236L0.196,-0.236C0.197,-0.194 0.21,-0.16 0.233,-0.137C0.257,-0.113 0.29,-0.101 0.332,-0.101C0.365,-0.101 0.396,-0.104 0.425,-0.111C0.455,-0.118 0.485,-0.129 0.517,-0.144L0.517,-0.029C0.491,-0.016 0.463,-0.006 0.434,0C0.404,0.007 0.368,0.01 0.325,0.01Z" style="fill-rule:nonzero;"/>
        </g>
        <g transform="matrix(12,0,0,12,138.599,138.104)">
            <path d="M0.208,0L0,-0.546L0.156,-0.546L0.261,-0.235C0.273,-0.195 0.28,-0.158 0.283,-0.123L0.286,-0.123C0.288,-0.154 0.295,-0.192 0.308,-0.235L0.413,-0.546L0.569,-0.546L0.361,0L0.208,0Z" style="fill-rule:nonzero;"/>
        </g>
        <g transform="matrix(12,0,0,12,144.945,138.104)">
            <path d="M0.304,-0.45C0.273,-0.45 0.248,-0.44 0.23,-0.42C0.212,-0.4 0.202,-0.372 0.199,-0.335L0.408,-0.335C0.408,-0.372 0.398,-0.4 0.379,-0.42C0.361,-0.44 0.336,-0.45 0.304,-0.45ZM0.325,0.01C0.237,0.01 0.169,-0.014 0.119,-0.063C0.07,-0.111 0.045,-0.18 0.045,-0.269C0.045,-0.361 0.068,-0.431 0.114,-0.481C0.159,-0.531 0.222,-0.556 0.303,-0.556C0.38,-0.556 0.44,-0.534 0.483,-0.49C0.526,-0.446 0.548,-0.386 0.548,-0.308L0.548,-0.236L0.196,-0.236C0.197,-0.194 0.21,-0.16 0.233,-0.137C0.257,-0.113 0.29,-0.101 0.332,-0.101C0.365,-0.101 0.396,-0.104 0.425,-0.111C0.455,-0.118 0.485,-0.129 0.517,-0.144L0.517,-0.029C0.491,-0.016 0.463,-0.006 0.434,0C0.404,0.007 0.368,0.01 0.325,0.01Z" style="fill-rule:nonzero;"/>
        </g>
        <g transform="matrix(12,0,0,12,151.555,138.104)">
            <path d="M0.582,0L0.433,0L0.433,-0.319C0.433,-0.358 0.426,-0.388 0.412,-0.407C0.398,-0.427 0.376,-0.437 0.345,-0.437C0.304,-0.437 0.273,-0.423 0.255,-0.395C0.236,-0.367 0.227,-0.321 0.227,-0.257L0.227,0L0.078,0L0.078,-0.546L0.192,-0.546L0.212,-0.476L0.22,-0.476C0.237,-0.502 0.26,-0.522 0.289,-0.536C0.318,-0.549 0.351,-0.556 0.388,-0.556C0.452,-0.556 0.5,-0.539 0.533,-0.505C0.566,-0.47 0.582,-0.421 0.582,-0.356L0.582,0Z" style="fill-rule:nonzero;"/>
        </g>
        <g transform="matrix(12,0,0,12,158.961,138.104)">
            <path d="M0.539,0L0.04,0L0.04,-0.105L0.219,-0.286C0.272,-0.34 0.307,-0.378 0.323,-0.399C0.34,-0.42 0.351,-0.44 0.358,-0.458C0.366,-0.475 0.369,-0.494 0.369,-0.513C0.369,-0.542 0.361,-0.563 0.345,-0.577C0.33,-0.591 0.309,-0.598 0.282,-0.598C0.255,-0.598 0.228,-0.592 0.202,-0.579C0.176,-0.566 0.148,-0.548 0.12,-0.525L0.038,-0.622C0.073,-0.652 0.102,-0.673 0.125,-0.686C0.149,-0.698 0.174,-0.707 0.201,-0.714C0.229,-0.721 0.259,-0.724 0.293,-0.724C0.338,-0.724 0.377,-0.716 0.411,-0.7C0.445,-0.683 0.472,-0.661 0.491,-0.631C0.51,-0.602 0.519,-0.569 0.519,-0.531C0.519,-0.498 0.513,-0.467 0.502,-0.438C0.49,-0.409 0.472,-0.38 0.448,-0.35C0.424,-0.319 0.381,-0.276 0.32,-0.22L0.228,-0.134L0.228,-0.127L0.539,-0.127L0.539,0Z" style="fill-rule:nonzero;"/>
        </g>
        <g transform="matrix(12,0,0,12,165.331,138.104)">
            <path d="M0.511,-0.554C0.511,-0.51 0.498,-0.472 0.471,-0.44C0.444,-0.409 0.406,-0.388 0.357,-0.376L0.357,-0.373C0.415,-0.366 0.458,-0.348 0.488,-0.321C0.517,-0.293 0.532,-0.255 0.532,-0.208C0.532,-0.139 0.507,-0.086 0.458,-0.048C0.408,-0.009 0.337,0.01 0.244,0.01C0.167,0.01 0.098,-0.003 0.038,-0.029L0.038,-0.157C0.066,-0.143 0.096,-0.132 0.129,-0.123C0.163,-0.114 0.195,-0.11 0.228,-0.11C0.278,-0.11 0.315,-0.118 0.338,-0.135C0.362,-0.152 0.374,-0.179 0.374,-0.217C0.374,-0.25 0.36,-0.274 0.333,-0.288C0.306,-0.302 0.262,-0.309 0.202,-0.309L0.148,-0.309L0.148,-0.425L0.203,-0.425C0.258,-0.425 0.299,-0.432 0.324,-0.447C0.35,-0.461 0.363,-0.486 0.363,-0.521C0.363,-0.575 0.329,-0.602 0.261,-0.602C0.238,-0.602 0.214,-0.598 0.19,-0.59C0.165,-0.583 0.139,-0.569 0.109,-0.55L0.039,-0.654C0.104,-0.701 0.182,-0.724 0.272,-0.724C0.346,-0.724 0.404,-0.709 0.447,-0.679C0.49,-0.649 0.511,-0.608 0.511,-0.554Z" style="fill-rule:nonzero;"/>
        </g>
    </g>
</svg>
