<svg clip-rule="evenodd" fill-rule="evenodd" viewBox="0 0 512 512" xmlns="http://www.w3.org/2000/svg" xmlns:xlink="http://www.w3.org/1999/xlink"><clipPath id="a"><path clip-rule="evenodd" d="m232.169 199.679h168.398v168.398h-168.398z"/></clipPath><path d="m0 0h512v512h-512z" fill="#1e88e5"/><path d="m227.748 107.408 14.126 42.378h141.261c15.539 0 28.252 12.713 28.252 28.252v211.892c0 15.539-12.713 28.252-28.252 28.252h-127.135l-14.126-42.378h-113.009c-15.539 0-28.252-12.714-28.252-28.252v-211.892c0-15.539 12.713-28.252 28.252-28.252zm148.324 289.585c7.769 0 14.126-6.357 14.126-14.126v-197.766c0-7.769-6.357-14.126-14.126-14.126h-127.7l64.132 190.703-28.252 35.315zm-222.19-169.994c.707-5.763 3.023-11.851 6.964-18.251 3.871-6.201 8.194-10.976 12.982-14.352 8.024-5.707 17.941-8.56 29.764-8.56 10.905 0 20.638 3.56 29.227 10.665l4.224-19.635c-8.942-5.693-19.946-8.547-33.027-8.547-13.66 0-26.148 3.094-37.477 9.295-18.364 9.988-29.721 26.445-34.086 49.385h-12.247l-2.953 14.141h13.83c-.071 1.483-.099 2.924-.099 4.336 0 3.447.099 6.64.311 9.592h-11.089l-2.953 14.154h16.146c1.625 7.586 3.56 14.07 5.806 19.41 11.188 26.458 32.688 39.68 64.486 39.68 10.623 0 20.342-2.034 29.128-6.117v-21.74c-7.388 6.894-17.658 10.341-30.809 10.341-9.436 0-18.194-2.43-26.289-7.275-11.258-6.753-18.364-18.195-21.316-34.299h62.791l2.966-14.154h-67.975c-.071-1.045-.099-4.28-.099-9.705 0-1.328.028-2.74.099-4.223h70.814l2.854-14.141z" fill="#fff" fill-rule="nonzero"/><g clip-path="url(#a)" stroke="#fff"><path d="m272.245 304.764c1.342 23.576 19.536 37.377 43.777 37.052 26.274.325 43.452-11.456 42.11-34.029-3.715-20.54-26.275-23.238-41.093-26.6-16.174-5.382-39.737-5.382-39.412-29.975-.325-17.856 19.876-28.295 39.412-26.275 20.2.339 37.378 10.778 37.717 32.335" fill="none" stroke-width="15.11"/><path d="m306.6 205.415v156.263m21.217 0v-156.263" stroke-width="11.72"/></g></svg>