<?xml version="1.0" standalone="no"?>
<!DOCTYPE svg PUBLIC "-//W3C//DTD SVG 20010904//EN"
 "http://www.w3.org/TR/2001/REC-SVG-20010904/DTD/svg10.dtd">
<svg version="1.0" xmlns="http://www.w3.org/2000/svg"
 width="700.000000pt" height="700.000000pt" viewBox="0 0 700.000000 700.000000"
 preserveAspectRatio="xMidYMid meet">
<metadata>
Created by potrace 1.11, written by Peter Selinger 2001-2013
</metadata>
<g transform="translate(0.000000,700.000000) scale(0.100000,-0.100000)"
fill="#000000" stroke="none">
<path d="M3379 5419 c-5 -3 -7 -522 -3 -1270 5 -1295 13 -2816 13 -2879 l1
-35 306 0 306 1 67 164 c55 139 70 166 88 168 17 3 44 -18 110 -86 206 -209
416 -294 733 -295 144 0 188 5 320 38 115 28 280 123 386 222 206 193 359 526
400 874 3 30 8 57 10 60 5 10 17 249 17 354 0 237 -18 399 -69 635 -13 62 -79
243 -115 319 -131 270 -313 450 -549 543 -134 52 -201 63 -390 63 -190 -1
-243 -10 -392 -67 -146 -55 -315 -190 -404 -322 -54 -80 -66 -72 -58 37 4 51
9 112 11 137 2 25 5 336 7 693 2 577 0 647 -14 648 -70 4 -774 3 -781 -2z
m1472 -1783 c67 -9 163 -55 225 -109 106 -90 195 -292 219 -498 3 -30 8 -67
11 -82 8 -40 8 -330 0 -407 -36 -337 -154 -561 -343 -651 -60 -29 -80 -33
-173 -37 -173 -7 -298 36 -400 138 -122 122 -180 301 -198 614 -21 361 13 635
100 798 97 182 303 268 559 234z"/>
<path d="M1829 4296 c-2 -2 -30 -6 -62 -10 -174 -18 -318 -57 -452 -121 -220
-105 -361 -263 -420 -472 -21 -76 -32 -216 -24 -323 14 -188 57 -308 153 -437
114 -152 272 -250 716 -448 465 -207 574 -291 572 -443 0 -55 -18 -110 -44
-142 -17 -20 -84 -71 -95 -72 -4 0 -19 -5 -33 -10 -80 -31 -318 -43 -448 -23
-178 27 -332 63 -485 112 -45 15 -84 27 -87 28 -3 1 -18 7 -35 14 -16 7 -64
26 -105 42 -41 17 -80 35 -87 41 -16 13 -15 40 -13 -357 0 -264 3 -312 16
-321 51 -39 365 -125 544 -149 182 -24 700 -25 773 0 6 2 28 6 47 9 19 3 46 8
60 11 14 3 34 7 45 9 58 12 180 53 251 86 333 153 498 433 489 828 -9 376
-168 603 -560 800 -55 28 -194 91 -310 140 -260 111 -354 155 -425 200 -100
63 -142 127 -142 215 1 95 72 155 217 182 41 8 241 8 290 0 142 -22 329 -77
458 -134 27 -11 54 -21 60 -22 7 0 39 -13 72 -28 41 -20 62 -25 66 -17 6 9
199 485 229 562 8 19 -1 24 -93 62 -222 90 -421 147 -586 167 -30 4 -63 9 -75
12 -24 6 -471 15 -477 9z"/>
</g>
</svg>
