<?xml version="1.0" standalone="no"?>
<!DOCTYPE svg PUBLIC "-//W3C//DTD SVG 20010904//EN"
 "http://www.w3.org/TR/2001/REC-SVG-20010904/DTD/svg10.dtd">
<svg version="1.0" xmlns="http://www.w3.org/2000/svg"
 width="512.000000pt" height="512.000000pt" viewBox="0 0 512.000000 512.000000"
 preserveAspectRatio="xMidYMid meet">
<metadata>
Created by potrace 1.11, written by Peter Selinger 2001-2013
</metadata>
<g transform="translate(0.000000,512.000000) scale(0.100000,-0.100000)"
fill="#000000" stroke="none">
<path d="M2490 2767 c0 -530 3 -1106 7 -1281 l6 -316 185 2 184 3 41 103 c22
56 46 102 52 102 7 0 44 -31 83 -69 107 -105 225 -156 392 -167 300 -20 547
151 658 455 53 148 66 239 66 481 1 246 -10 327 -63 485 -81 241 -249 412
-452 460 -83 19 -248 19 -324 0 -128 -33 -244 -113 -327 -225 -14 -19 -29 -32
-32 -29 -3 3 -1 63 4 135 5 71 10 285 10 477 l0 347 -245 0 -245 0 0 -963z
m965 -151 c150 -70 223 -264 212 -566 -8 -222 -50 -346 -149 -435 -59 -53
-114 -69 -211 -63 -167 11 -260 103 -301 298 -22 109 -30 298 -17 415 30 267
126 374 336 374 63 1 90 -4 130 -23z"/>
<path d="M1436 3025 c-322 -67 -476 -229 -476 -500 1 -269 120 -409 480 -565
135 -59 289 -137 328 -167 103 -78 95 -206 -16 -256 -130 -58 -444 -18 -709
92 l-73 30 0 -205 0 -205 43 -18 c219 -94 623 -117 883 -51 224 58 369 194
414 390 20 84 15 243 -9 320 -55 175 -166 266 -499 409 -302 130 -352 167
-352 257 0 87 75 120 253 111 118 -5 215 -30 378 -97 39 -17 73 -29 74 -28 14
16 143 354 137 360 -17 16 -204 82 -302 105 -88 21 -135 26 -295 29 -138 2
-209 -1 -259 -11z"/>
</g>
</svg>
