<svg clip-rule="evenodd" fill-rule="evenodd" stroke-linecap="round" stroke-linejoin="round" stroke-miterlimit="2" viewBox="0 0 72 72" xmlns="http://www.w3.org/2000/svg"><g transform="matrix(1.2782 0 0 1.2782 -10.2572 -7.84568)"><path d="m34 16.112v-2.511c0-1.38 1.119-2.5 2.5-2.5s2.5 1.12 2.5 2.5v2.5" fill="#d22f27" fill-rule="nonzero"/><path d="m13.5 41.101c-1.381 0-2.5-1.119-2.5-2.5v-8c0-1.38 1.119-2.5 2.5-2.5s2.5 1.12 2.5 2.5v8c0 1.381-1.119 2.5-2.5 2.5z" fill="#d0cfce" fill-rule="nonzero"/><path d="m58.5 41.101c1.381 0 2.5-1.119 2.5-2.5v-8c0-1.38-1.119-2.5-2.5-2.5s-2.5 1.12-2.5 2.5v8c0 1.381 1.119 2.5 2.5 2.5z" fill="#d0cfce" fill-rule="nonzero"/><path d="m47.451 56.112h-22.902c-4.702 0-8.549-3.847-8.549-8.549v-22.901c0-4.702 3.847-8.55 8.549-8.55h22.902c4.702 0 8.549 3.848 8.549 8.55v22.901c0 4.702-3.847 8.549-8.549 8.549z" fill="#d0cfce" fill-rule="nonzero"/><path d="m35.498 56.112h13.286c3.969 0 7.216-3.848 7.216-8.55v-22.901c0-4.702-3.247-8.549-7.216-8.549h-2.352" fill="#9b9b9a" fill-rule="nonzero"/><circle cx="44.835" cy="29.003" fill="#fff" r="2.834"/><circle cx="27.334" cy="29.002" fill="#fff" r="2.834"/><path d="m44.5 47.501h-17c-2.2 0-4-1.8-4-4s1.8-4 4-4h17c2.2 0 4 1.8 4 4s-1.8 4-4 4z" fill="#fff" fill-rule="nonzero"/><g fill="none" stroke="#000" stroke-width="2"><path d="m34 16.011v-2.511c0-1.381 1.119-2.5 2.5-2.5s2.5 1.119 2.5 2.5v2.5"/><path d="m47.451 56h-22.902c-4.702 0-8.549-3.847-8.549-8.549v-22.902c0-4.702 3.847-8.549 8.549-8.549h22.902c4.702 0 8.549 3.847 8.549 8.549v22.902c0 4.702-3.847 8.549-8.549 8.549z"/><circle cx="44.835" cy="29.002" r="2.834"/><circle cx="27.334" cy="29.002" r="2.834"/><path d="m44.5 47.5h-17c-2.2 0-4-1.8-4-4s1.8-4 4-4h17c2.2 0 4 1.8 4 4s-1.8 4-4 4z" stroke-linecap="butt" stroke-linejoin="miter"/><path d="m13.5 41c-1.381 0-2.5-1.119-2.5-2.5v-8c0-1.381 1.119-2.5 2.5-2.5s2.5 1.119 2.5 2.5v8c0 1.381-1.119 2.5-2.5 2.5z"/><path d="m58.5 41c1.381 0 2.5-1.119 2.5-2.5v-8c0-1.381-1.119-2.5-2.5-2.5s-2.5 1.119-2.5 2.5v8c0 1.381 1.119 2.5 2.5 2.5z"/><path d="m28 40v7"/><path d="m33 40v7"/><path d="m38 40v7"/><path d="m43 40v7"/></g></g></svg>