<?xml version="1.0" encoding="UTF-8" standalone="no"?>
<!DOCTYPE svg PUBLIC "-//W3C//DTD SVG 1.1//EN" "http://www.w3.org/Graphics/SVG/1.1/DTD/svg11.dtd">
<svg width="100%" height="100%" viewBox="0 0 850 100" version="1.1" xmlns="http://www.w3.org/2000/svg" xmlns:xlink="http://www.w3.org/1999/xlink" xml:space="preserve" xmlns:serif="http://www.serif.com/" style="fill-rule:evenodd;clip-rule:evenodd;stroke-linejoin:round;stroke-miterlimit:2;">
    <g transform="matrix(1.36726,0,0,1.36726,-63.597,14.9221)">
        <g transform="matrix(72,0,0,72,64.5087,52.9841)">
            <path d="M0.459,-0.162C0.459,-0.106 0.44,-0.063 0.401,-0.034C0.362,-0.005 0.304,0.01 0.226,0.01C0.186,0.01 0.153,0.007 0.125,0.002C0.097,-0.004 0.07,-0.012 0.046,-0.022L0.046,-0.145C0.074,-0.132 0.105,-0.121 0.139,-0.112C0.174,-0.104 0.205,-0.099 0.231,-0.099C0.285,-0.099 0.312,-0.115 0.312,-0.146C0.312,-0.158 0.308,-0.167 0.301,-0.175C0.294,-0.182 0.282,-0.19 0.264,-0.199C0.247,-0.209 0.223,-0.22 0.194,-0.232C0.152,-0.25 0.121,-0.266 0.101,-0.281C0.082,-0.296 0.067,-0.313 0.058,-0.332C0.049,-0.352 0.045,-0.375 0.045,-0.404C0.045,-0.452 0.064,-0.49 0.101,-0.516C0.139,-0.543 0.192,-0.556 0.261,-0.556C0.327,-0.556 0.391,-0.542 0.453,-0.513L0.408,-0.406C0.381,-0.417 0.355,-0.427 0.332,-0.435C0.308,-0.442 0.284,-0.446 0.259,-0.446C0.215,-0.446 0.193,-0.434 0.193,-0.41C0.193,-0.397 0.2,-0.385 0.214,-0.375C0.228,-0.366 0.259,-0.351 0.307,-0.332C0.35,-0.315 0.381,-0.299 0.401,-0.284C0.421,-0.269 0.435,-0.251 0.445,-0.232C0.454,-0.212 0.459,-0.189 0.459,-0.162Z" style="fill-rule:nonzero;"/>
        </g>
        <g transform="matrix(72,0,0,72,98.4258,52.9841)">
            <path d="M0.304,-0.45C0.273,-0.45 0.248,-0.44 0.23,-0.42C0.212,-0.4 0.202,-0.372 0.199,-0.335L0.408,-0.335C0.408,-0.372 0.398,-0.4 0.379,-0.42C0.361,-0.44 0.336,-0.45 0.304,-0.45ZM0.325,0.01C0.237,0.01 0.169,-0.014 0.119,-0.063C0.07,-0.111 0.045,-0.18 0.045,-0.269C0.045,-0.361 0.068,-0.431 0.114,-0.481C0.159,-0.531 0.222,-0.556 0.303,-0.556C0.38,-0.556 0.44,-0.534 0.483,-0.49C0.526,-0.446 0.548,-0.386 0.548,-0.308L0.548,-0.236L0.196,-0.236C0.197,-0.194 0.21,-0.16 0.233,-0.137C0.257,-0.113 0.29,-0.101 0.332,-0.101C0.365,-0.101 0.396,-0.104 0.425,-0.111C0.455,-0.118 0.485,-0.129 0.517,-0.144L0.517,-0.029C0.491,-0.016 0.463,-0.006 0.434,0C0.404,0.007 0.368,0.01 0.325,0.01Z" style="fill-rule:nonzero;"/>
        </g>
        <g transform="matrix(72,0,0,72,139.093,52.9841)">
            <path d="M0.382,-0.556C0.446,-0.556 0.497,-0.531 0.533,-0.481C0.57,-0.43 0.588,-0.361 0.588,-0.274C0.588,-0.184 0.569,-0.114 0.531,-0.064C0.494,-0.015 0.443,0.01 0.378,0.01C0.314,0.01 0.264,-0.014 0.227,-0.06L0.217,-0.06L0.192,0L0.078,0L0.078,-0.76L0.227,-0.76L0.227,-0.583C0.227,-0.561 0.225,-0.525 0.221,-0.475L0.227,-0.475C0.262,-0.529 0.313,-0.556 0.382,-0.556ZM0.334,-0.437C0.297,-0.437 0.27,-0.426 0.253,-0.403C0.236,-0.38 0.228,-0.343 0.227,-0.291L0.227,-0.275C0.227,-0.216 0.236,-0.174 0.253,-0.149C0.271,-0.124 0.298,-0.111 0.336,-0.111C0.367,-0.111 0.391,-0.125 0.409,-0.153C0.427,-0.181 0.436,-0.222 0.436,-0.276C0.436,-0.33 0.427,-0.37 0.409,-0.397C0.39,-0.424 0.366,-0.437 0.334,-0.437Z" style="fill-rule:nonzero;"/>
        </g>
        <g transform="matrix(72,0,0,72,182.783,52.9841)">
            <path d="M0.425,0L0.396,-0.074L0.392,-0.074C0.367,-0.043 0.341,-0.021 0.315,-0.009C0.288,0.004 0.254,0.01 0.211,0.01C0.159,0.01 0.117,-0.005 0.087,-0.035C0.057,-0.065 0.042,-0.108 0.042,-0.163C0.042,-0.221 0.062,-0.264 0.103,-0.291C0.143,-0.319 0.204,-0.334 0.286,-0.337L0.381,-0.34L0.381,-0.364C0.381,-0.419 0.353,-0.447 0.296,-0.447C0.252,-0.447 0.201,-0.434 0.142,-0.407L0.093,-0.508C0.156,-0.541 0.225,-0.557 0.302,-0.557C0.375,-0.557 0.431,-0.541 0.47,-0.509C0.509,-0.477 0.529,-0.429 0.529,-0.364L0.529,0L0.425,0ZM0.381,-0.253L0.323,-0.251C0.28,-0.25 0.248,-0.242 0.227,-0.228C0.205,-0.213 0.195,-0.191 0.195,-0.162C0.195,-0.12 0.219,-0.099 0.267,-0.099C0.302,-0.099 0.329,-0.109 0.35,-0.129C0.371,-0.149 0.381,-0.175 0.381,-0.208L0.381,-0.253Z" style="fill-rule:nonzero;"/>
        </g>
        <g transform="matrix(72,0,0,72,224.4,52.9841)">
            <path d="M0.459,-0.162C0.459,-0.106 0.44,-0.063 0.401,-0.034C0.362,-0.005 0.304,0.01 0.226,0.01C0.186,0.01 0.153,0.007 0.125,0.002C0.097,-0.004 0.07,-0.012 0.046,-0.022L0.046,-0.145C0.074,-0.132 0.105,-0.121 0.139,-0.112C0.174,-0.104 0.205,-0.099 0.231,-0.099C0.285,-0.099 0.312,-0.115 0.312,-0.146C0.312,-0.158 0.308,-0.167 0.301,-0.175C0.294,-0.182 0.282,-0.19 0.264,-0.199C0.247,-0.209 0.223,-0.22 0.194,-0.232C0.152,-0.25 0.121,-0.266 0.101,-0.281C0.082,-0.296 0.067,-0.313 0.058,-0.332C0.049,-0.352 0.045,-0.375 0.045,-0.404C0.045,-0.452 0.064,-0.49 0.101,-0.516C0.139,-0.543 0.192,-0.556 0.261,-0.556C0.327,-0.556 0.391,-0.542 0.453,-0.513L0.408,-0.406C0.381,-0.417 0.355,-0.427 0.332,-0.435C0.308,-0.442 0.284,-0.446 0.259,-0.446C0.215,-0.446 0.193,-0.434 0.193,-0.41C0.193,-0.397 0.2,-0.385 0.214,-0.375C0.228,-0.366 0.259,-0.351 0.307,-0.332C0.35,-0.315 0.381,-0.299 0.401,-0.284C0.421,-0.269 0.435,-0.251 0.445,-0.232C0.454,-0.212 0.459,-0.189 0.459,-0.162Z" style="fill-rule:nonzero;"/>
        </g>
        <g transform="matrix(72,0,0,72,258.317,52.9841)">
            <path d="M0.308,-0.109C0.334,-0.109 0.365,-0.115 0.402,-0.126L0.402,-0.015C0.365,0.001 0.319,0.01 0.265,0.01C0.206,0.01 0.162,-0.005 0.135,-0.035C0.108,-0.066 0.094,-0.111 0.094,-0.171L0.094,-0.434L0.023,-0.434L0.023,-0.497L0.105,-0.547L0.148,-0.662L0.243,-0.662L0.243,-0.546L0.396,-0.546L0.396,-0.434L0.243,-0.434L0.243,-0.171C0.243,-0.15 0.249,-0.134 0.261,-0.124C0.273,-0.114 0.289,-0.109 0.308,-0.109Z" style="fill-rule:nonzero;"/>
        </g>
        <g transform="matrix(72,0,0,72,287.699,52.9841)">
            <path d="M0.072,-0.687C0.072,-0.736 0.099,-0.76 0.153,-0.76C0.207,-0.76 0.234,-0.736 0.234,-0.687C0.234,-0.664 0.227,-0.646 0.214,-0.633C0.2,-0.62 0.18,-0.614 0.153,-0.614C0.099,-0.614 0.072,-0.638 0.072,-0.687ZM0.227,0L0.078,0L0.078,-0.546L0.227,-0.546L0.227,0Z" style="fill-rule:nonzero;"/>
        </g>
        <g transform="matrix(72,0,0,72,307.799,52.9841)">
            <path d="M0.304,-0.45C0.273,-0.45 0.248,-0.44 0.23,-0.42C0.212,-0.4 0.202,-0.372 0.199,-0.335L0.408,-0.335C0.408,-0.372 0.398,-0.4 0.379,-0.42C0.361,-0.44 0.336,-0.45 0.304,-0.45ZM0.325,0.01C0.237,0.01 0.169,-0.014 0.119,-0.063C0.07,-0.111 0.045,-0.18 0.045,-0.269C0.045,-0.361 0.068,-0.431 0.114,-0.481C0.159,-0.531 0.222,-0.556 0.303,-0.556C0.38,-0.556 0.44,-0.534 0.483,-0.49C0.526,-0.446 0.548,-0.386 0.548,-0.308L0.548,-0.236L0.196,-0.236C0.197,-0.194 0.21,-0.16 0.233,-0.137C0.257,-0.113 0.29,-0.101 0.332,-0.101C0.365,-0.101 0.396,-0.104 0.425,-0.111C0.455,-0.118 0.485,-0.129 0.517,-0.144L0.517,-0.029C0.491,-0.016 0.463,-0.006 0.434,0C0.404,0.007 0.368,0.01 0.325,0.01Z" style="fill-rule:nonzero;"/>
        </g>
        <g transform="matrix(72,0,0,72,348.466,52.9841)">
            <path d="M0.582,0L0.433,0L0.433,-0.319C0.433,-0.358 0.426,-0.388 0.412,-0.407C0.398,-0.427 0.376,-0.437 0.345,-0.437C0.304,-0.437 0.273,-0.423 0.255,-0.395C0.236,-0.367 0.227,-0.321 0.227,-0.257L0.227,0L0.078,0L0.078,-0.546L0.192,-0.546L0.212,-0.476L0.22,-0.476C0.237,-0.502 0.26,-0.522 0.289,-0.536C0.318,-0.549 0.351,-0.556 0.388,-0.556C0.452,-0.556 0.5,-0.539 0.533,-0.505C0.566,-0.47 0.582,-0.421 0.582,-0.356L0.582,0Z" style="fill-rule:nonzero;"/>
        </g>
        <g transform="matrix(72,0,0,72,393.915,52.9841)">
            <path d="M0.382,-0.556C0.446,-0.556 0.497,-0.531 0.533,-0.481C0.57,-0.43 0.588,-0.361 0.588,-0.274C0.588,-0.184 0.569,-0.114 0.531,-0.064C0.494,-0.015 0.443,0.01 0.378,0.01C0.314,0.01 0.264,-0.014 0.227,-0.06L0.217,-0.06L0.192,0L0.078,0L0.078,-0.76L0.227,-0.76L0.227,-0.583C0.227,-0.561 0.225,-0.525 0.221,-0.475L0.227,-0.475C0.262,-0.529 0.313,-0.556 0.382,-0.556ZM0.334,-0.437C0.297,-0.437 0.27,-0.426 0.253,-0.403C0.236,-0.38 0.228,-0.343 0.227,-0.291L0.227,-0.275C0.227,-0.216 0.236,-0.174 0.253,-0.149C0.271,-0.124 0.298,-0.111 0.336,-0.111C0.367,-0.111 0.391,-0.125 0.409,-0.153C0.427,-0.181 0.436,-0.222 0.436,-0.276C0.436,-0.33 0.427,-0.37 0.409,-0.397C0.39,-0.424 0.366,-0.437 0.334,-0.437Z" style="fill-rule:nonzero;"/>
        </g>
        <g transform="matrix(72,0,0,72,437.605,52.9841)">
            <path d="M0.425,0L0.396,-0.074L0.392,-0.074C0.367,-0.043 0.341,-0.021 0.315,-0.009C0.288,0.004 0.254,0.01 0.211,0.01C0.159,0.01 0.117,-0.005 0.087,-0.035C0.057,-0.065 0.042,-0.108 0.042,-0.163C0.042,-0.221 0.062,-0.264 0.103,-0.291C0.143,-0.319 0.204,-0.334 0.286,-0.337L0.381,-0.34L0.381,-0.364C0.381,-0.419 0.353,-0.447 0.296,-0.447C0.252,-0.447 0.201,-0.434 0.142,-0.407L0.093,-0.508C0.156,-0.541 0.225,-0.557 0.302,-0.557C0.375,-0.557 0.431,-0.541 0.47,-0.509C0.509,-0.477 0.529,-0.429 0.529,-0.364L0.529,0L0.425,0ZM0.381,-0.253L0.323,-0.251C0.28,-0.25 0.248,-0.242 0.227,-0.228C0.205,-0.213 0.195,-0.191 0.195,-0.162C0.195,-0.12 0.219,-0.099 0.267,-0.099C0.302,-0.099 0.329,-0.109 0.35,-0.129C0.371,-0.149 0.381,-0.175 0.381,-0.208L0.381,-0.253Z" style="fill-rule:nonzero;"/>
        </g>
        <g transform="matrix(72,0,0,72,479.221,52.9841)">
            <path d="M0.383,-0.556C0.403,-0.556 0.42,-0.555 0.433,-0.552L0.422,-0.412C0.41,-0.415 0.395,-0.417 0.378,-0.417C0.33,-0.417 0.293,-0.405 0.267,-0.38C0.24,-0.356 0.227,-0.322 0.227,-0.278L0.227,0L0.078,0L0.078,-0.546L0.191,-0.546L0.213,-0.454L0.22,-0.454C0.237,-0.485 0.26,-0.509 0.289,-0.528C0.318,-0.547 0.349,-0.556 0.383,-0.556Z" style="fill-rule:nonzero;"/>
        </g>
        <g transform="matrix(72,0,0,72,510.045,52.9841)">
            <path d="M0.382,-0.556C0.446,-0.556 0.497,-0.531 0.533,-0.481C0.57,-0.43 0.588,-0.361 0.588,-0.274C0.588,-0.184 0.569,-0.114 0.531,-0.064C0.494,-0.015 0.443,0.01 0.378,0.01C0.314,0.01 0.264,-0.014 0.227,-0.06L0.217,-0.06L0.192,0L0.078,0L0.078,-0.76L0.227,-0.76L0.227,-0.583C0.227,-0.561 0.225,-0.525 0.221,-0.475L0.227,-0.475C0.262,-0.529 0.313,-0.556 0.382,-0.556ZM0.334,-0.437C0.297,-0.437 0.27,-0.426 0.253,-0.403C0.236,-0.38 0.228,-0.343 0.227,-0.291L0.227,-0.275C0.227,-0.216 0.236,-0.174 0.253,-0.149C0.271,-0.124 0.298,-0.111 0.336,-0.111C0.367,-0.111 0.391,-0.125 0.409,-0.153C0.427,-0.181 0.436,-0.222 0.436,-0.276C0.436,-0.33 0.427,-0.37 0.409,-0.397C0.39,-0.424 0.366,-0.437 0.334,-0.437Z" style="fill-rule:nonzero;"/>
        </g>
        <g transform="matrix(72,0,0,72,553.735,52.9841)">
            <path d="M0.072,-0.687C0.072,-0.736 0.099,-0.76 0.153,-0.76C0.207,-0.76 0.234,-0.736 0.234,-0.687C0.234,-0.664 0.227,-0.646 0.214,-0.633C0.2,-0.62 0.18,-0.614 0.153,-0.614C0.099,-0.614 0.072,-0.638 0.072,-0.687ZM0.227,0L0.078,0L0.078,-0.546L0.227,-0.546L0.227,0Z" style="fill-rule:nonzero;"/>
        </g>
        <g transform="matrix(72,0,0,72,573.836,52.9841)">
            <path d="M0.304,-0.45C0.273,-0.45 0.248,-0.44 0.23,-0.42C0.212,-0.4 0.202,-0.372 0.199,-0.335L0.408,-0.335C0.408,-0.372 0.398,-0.4 0.379,-0.42C0.361,-0.44 0.336,-0.45 0.304,-0.45ZM0.325,0.01C0.237,0.01 0.169,-0.014 0.119,-0.063C0.07,-0.111 0.045,-0.18 0.045,-0.269C0.045,-0.361 0.068,-0.431 0.114,-0.481C0.159,-0.531 0.222,-0.556 0.303,-0.556C0.38,-0.556 0.44,-0.534 0.483,-0.49C0.526,-0.446 0.548,-0.386 0.548,-0.308L0.548,-0.236L0.196,-0.236C0.197,-0.194 0.21,-0.16 0.233,-0.137C0.257,-0.113 0.29,-0.101 0.332,-0.101C0.365,-0.101 0.396,-0.104 0.425,-0.111C0.455,-0.118 0.485,-0.129 0.517,-0.144L0.517,-0.029C0.491,-0.016 0.463,-0.006 0.434,0C0.404,0.007 0.368,0.01 0.325,0.01Z" style="fill-rule:nonzero;"/>
        </g>
        <g transform="matrix(72,0,0,72,614.503,52.9841)">
            <path d="M0.383,-0.556C0.403,-0.556 0.42,-0.555 0.433,-0.552L0.422,-0.412C0.41,-0.415 0.395,-0.417 0.378,-0.417C0.33,-0.417 0.293,-0.405 0.267,-0.38C0.24,-0.356 0.227,-0.322 0.227,-0.278L0.227,0L0.078,0L0.078,-0.546L0.191,-0.546L0.213,-0.454L0.22,-0.454C0.237,-0.485 0.26,-0.509 0.289,-0.528C0.318,-0.547 0.349,-0.556 0.383,-0.556Z" style="fill-rule:nonzero;"/>
        </g>
    </g>
</svg>
