<?xml version="1.0" encoding="UTF-8" standalone="no"?>
<!DOCTYPE svg PUBLIC "-//W3C//DTD SVG 1.1//EN" "http://www.w3.org/Graphics/SVG/1.1/DTD/svg11.dtd">
<svg width="100%" height="100%" viewBox="0 0 32 32" version="1.1" xmlns="http://www.w3.org/2000/svg" xmlns:xlink="http://www.w3.org/1999/xlink" xml:space="preserve" xmlns:serif="http://www.serif.com/" style="fill-rule:evenodd;clip-rule:evenodd;stroke-linejoin:round;stroke-miterlimit:1.41421;">
    <rect x="-0.936" y="-0.338" width="36.864" height="41.545" style="fill:white;"/>
    <g id="_-sb-" serif:id="(sb)" transform="matrix(1.93738,0,0,1.93738,-6.35596,-14.6031)">
        <path d="M10.643,18.881C10.643,19.553 10.41,20.064 9.943,20.416C9.476,20.767 8.778,20.943 7.848,20.943C7.371,20.943 6.965,20.911 6.629,20.847C6.293,20.782 5.979,20.687 5.686,20.562L5.686,19.086C6.018,19.242 6.392,19.373 6.808,19.478C7.224,19.584 7.59,19.637 7.907,19.637C8.555,19.637 8.879,19.449 8.879,19.074C8.879,18.933 8.836,18.819 8.75,18.731C8.664,18.643 8.516,18.544 8.305,18.432C8.094,18.321 7.813,18.191 7.461,18.043C6.957,17.832 6.587,17.637 6.351,17.457C6.115,17.277 5.943,17.071 5.835,16.839C5.728,16.606 5.674,16.32 5.674,15.98C5.674,15.398 5.9,14.948 6.351,14.63C6.802,14.311 7.442,14.152 8.27,14.152C9.059,14.152 9.827,14.324 10.573,14.668L10.034,15.957C9.705,15.816 9.399,15.701 9.114,15.611C8.829,15.521 8.538,15.476 8.241,15.476C7.713,15.476 7.45,15.619 7.45,15.904C7.45,16.064 7.535,16.203 7.704,16.32C7.874,16.437 8.246,16.611 8.821,16.842C9.332,17.049 9.707,17.242 9.946,17.422C10.184,17.601 10.36,17.808 10.473,18.043C10.586,18.277 10.643,18.556 10.643,18.881Z" style="fill-rule:nonzero;"/>
        <path d="M15.682,14.152C16.455,14.152 17.061,14.454 17.498,15.057C17.936,15.661 18.155,16.488 18.155,17.539C18.155,18.621 17.929,19.459 17.478,20.053C17.027,20.646 16.413,20.943 15.635,20.943C14.866,20.943 14.262,20.664 13.825,20.105L13.702,20.105L13.403,20.826L12.038,20.826L12.038,11.709L13.825,11.709L13.825,13.83C13.825,14.099 13.801,14.531 13.754,15.125L13.825,15.125C14.243,14.476 14.862,14.152 15.682,14.152ZM15.108,15.582C14.666,15.582 14.344,15.718 14.141,15.989C13.938,16.261 13.832,16.709 13.825,17.334L13.825,17.527C13.825,18.23 13.929,18.734 14.138,19.039C14.347,19.344 14.678,19.496 15.131,19.496C15.498,19.496 15.79,19.327 16.007,18.989C16.224,18.651 16.332,18.16 16.332,17.515C16.332,16.871 16.223,16.388 16.004,16.065C15.786,15.743 15.487,15.582 15.108,15.582Z" style="fill-rule:nonzero;"/>
    </g>
</svg>
