<svg clip-rule="evenodd" fill-rule="evenodd" stroke-linejoin="round" stroke-miterlimit="2" viewBox="0 0 32 32" xmlns="http://www.w3.org/2000/svg"><g fill-rule="nonzero" transform="matrix(.244827 0 0 .245489 -93.3402 .13607)"><path d="m501.764 0h-110.421c-5.277 0-9.564 4.182-9.564 9.339v110.886c0 5.161 4.287 9.35 9.564 9.35h110.421c5.285 0 9.592-4.189 9.592-9.35v-110.886c0-5.157-4.307-9.339-9.592-9.339" fill="#1f1d1d"/><g fill="#fff"><path d="m410.603 17.839c6.146 0 11.138 4.993 11.138 11.14 0 6.151-4.992 11.146-11.138 11.146-6.158 0-11.144-4.995-11.144-11.146 0-6.147 4.986-11.14 11.144-11.14zm-9.613 30.739h19.219v61.837h-19.219z"/><path d="m432.263 48.578h18.436v8.448h.256c2.565-4.86 8.834-9.987 18.184-9.987 19.461 0 23.054 12.807 23.054 29.457v33.919h-19.205v-30.071c0-7.175-.132-16.398-9.987-16.398-10.002 0-11.533 7.812-11.533 15.878v30.591h-19.205z"/></g></g></svg>