<svg height="92" viewBox="0 0 93 92" width="93" xmlns="http://www.w3.org/2000/svg"><g fill="none" fill-rule="evenodd"><path d="m34.561 78.975c0 7.844 5.104 12.282 11.45 12.306 6.324.002 11.54-5.976 11.566-12.306l-11.574-11.718z" fill="#ff2674"/><path d="m30.494 12.753a11.432 11.432 0 0 0 -8.062-3.546c-3.094-.058-5.99 1.068-8.21 3.192-4.584 4.39-4.742 11.688-.354 16.272l1.718 1.794 24.332.104 3.916-3.882zm47.859 49.986-1.718-1.794-24.332-.104-3.916 3.882 13.34 13.934c4.388 4.58 11.69 4.74 16.272.354 4.582-4.39 4.742-11.688.354-16.272" fill="#ff4967"/><path d="m79.246 34.335-23.326 22.92 24.742.106h.05c3.056 0 5.932-1.182 8.104-3.334a11.448 11.448 0 0 0 3.404-8.127c.026-6.344-4.974-11.728-12.974-11.566m-67.688-.284h-.054a11.425 11.425 0 0 0 -8.098 3.334 11.439 11.439 0 0 0 -3.406 8.124c-.014 3.074.578 11.556 13.16 11.556l23.14-22.908z" fill="#ff2674"/><path d="m78.854 13.239c-4.468-4.506-11.768-4.54-16.274-.068l-49.144 48.722c-4.506 4.47-4.538 11.77-.07 16.276 4.468 4.508 11.77 4.542 16.276.07l49.142-48.722c4.508-4.47 4.538-11.772.07-16.278" fill="#ff4967"/><path d="m58.578 12.305c0-7.844-5.104-12.28-11.45-12.304-.016 0 .016 0 0 0-6.324-.001-11.54 5.974-11.566 12.304l11.574 11.718z" fill="#ff2674"/></g></svg>