<svg enable-background="new 0 0 67.6 68.6" viewBox="0 0 67.6 68.6" xmlns="http://www.w3.org/2000/svg"><g clip-rule="evenodd" fill-rule="evenodd"><circle cx="33.8" cy="34.3" fill="#020611" r="32"/><g fill="#fff"><path d="m22.4 30.3c.2 0 .4-.2.4-.4v-4.7-1.4-.1c0-.3.1-.5.3-.6 3.4-1.6 7.1-2.4 10.8-2.4s7.4.8 10.8 2.4c.2.1.3.4.3.6v.1 1.4 1c0 .1.1.1.1.1l4.9-.9c.1 0 .1-.1.1-.1v-1.1-3.3c0-.3-.2-.5-.4-.7-1.6-.9-3-1.5-4.7-2.1-3.3-1.3-6.9-2-10.5-2-.2 0-.4 0-.6 0s-.4 0-.6 0c-3.6.1-7.1.7-10.5 2-1.7.6-3.2 1.3-4.7 2.1-.2.1-.4.4-.4.7v3.3 6.8c0 .1.1.1.1.1z"/><path d="m45.3 31.2c-.2 0-.4.2-.4.4v3.2c0 1.5-.3 2.9-.8 4.2-2.7 6.5-8.5 9.5-10 10.2-.1 0-.2 0-.3 0-.1 0-.2 0-.3 0-1.5-.7-7.3-3.8-10-10.2-.4-1.1-.7-2.3-.8-3.5 0-.1-.1-.2-.3-.2l-4.7.8c-.1 0-.1.1-.1.1.1.9.3 1.8.5 2.7v.1c.3 1.1.7 2.1 1.2 3.1.8 1.6 1.7 3.2 2.9 4.6 3 3.7 6.8 6.4 11.3 7.8h.2s.1 0 .2 0c4.5-1.5 8.3-4.2 11.3-7.8 1.1-1.4 2.1-3 2.9-4.6.5-1 .9-2 1.2-3.1 0 0 0 0 0-.1.4-1.3.6-2.7.6-4.2v-2.6-1.6c0-.1-.1-.1-.1-.1z"/></g></g></svg>