<svg clip-rule="evenodd" fill-rule="evenodd" stroke-linejoin="round" stroke-miterlimit="2" viewBox="0 0 32 32" xmlns="http://www.w3.org/2000/svg"><g fill-rule="nonzero" transform="matrix(.279952 0 0 .279952 3.40144 -.030199)"><path d="m63.277 73.175-43.425-10.532 2.107-8.685 43.425 10.532z" fill="#b58f52"/><path d="m66.188 62.785-39.79-20.332 4.066-7.959 39.791 20.333z" fill="#c78431"/><path d="m72.317 52.022-33.65-29.399 5.879-6.73 33.651 29.398z" fill="#e9812c"/><path d="m81.575 42.561-25.094-36.973 7.395-5.019 25.093 36.973z" fill="#e5712a"/><path d="m62.582 84.038-44.618-2.436.487-8.924 44.618 2.436z" fill="#9d8469"/><g fill="#797b7b"><path d="m71.833 105.059v-37.024h8.929l.006 45.962h-80.768l.002-46.001h8.937v37.063z"/><path d="m17.84 87.221h44.987v8.937h-44.987z"/></g></g></svg>